<svg width="360" height="920" viewBox="0 0 360 920" fill="none" xmlns="http://www.w3.org/2000/svg">
<g clip-path="url(#clip0_325_1482)">
<rect width="360" height="920" fill="#1A1A1A"/>
<g clip-path="url(#clip1_325_1482)">
<path d="M117.757 417.954L102.58 418.83L97.6204 430.538L89.8379 425.888L92.9634 419.03L87.3138 419.346L83.1186 421.867L76.3984 417.85L96.924 405.495L103.644 409.512L95.6993 414.294L109.791 413.188L117.757 417.954Z" fill="white"/>
<path d="M96.8447 431.668L96.8074 445.209C96.7855 453.225 92.9977 455.912 86.3685 451.95C83.1445 450.002 80.4827 447.196 78.6594 443.823C76.8362 440.45 75.918 436.633 76.0002 432.769L76.0367 419.227L82.8145 423.279L82.7796 436.013C82.7698 439.268 83.8022 442.49 86.3896 444.037C88.977 445.585 90.0288 443.61 90.0418 440.354L90.0767 427.616L96.8447 431.668Z" fill="white"/>
<path d="M116.714 432.309C119.865 430.702 122.567 431.15 122.577 434.778C122.587 438.749 119.394 443.351 114.359 446.36L98.1886 456.026L98.1221 431.618L113.168 422.625C118.2 419.618 121.411 420.315 121.422 424.117C121.429 426.838 119.721 430.301 116.714 432.309ZM112.656 441.439C113.191 441.143 113.643 440.709 113.967 440.179C114.291 439.649 114.477 439.04 114.506 438.413C114.506 437.231 113.768 436.933 112.644 437.604L105.918 441.625L105.929 445.461L112.655 441.44L112.656 441.439ZM105.894 432.913L105.904 436.397L111.869 432.831C112.372 432.561 112.799 432.161 113.11 431.67C113.42 431.178 113.603 430.613 113.642 430.027C113.642 428.846 112.819 428.774 111.866 429.343L105.901 432.91" fill="white"/>
<path d="M118.839 469.383L118.818 477.412L112.614 473.703L112.588 482.76L118.792 486.469L118.77 494.499L98.0996 482.144L98.1215 474.114L104.32 477.82L104.345 468.763L98.1467 465.057L98.1686 457.028L104.367 460.733L112.636 465.678L118.839 469.383Z" fill="white"/>
<path d="M141.541 456.633L134.502 470.989L142.001 481.46L134.021 486.231L129.74 479.895L127.111 485.235L127.125 490.354L120.226 494.477L120.157 469.414L127.056 465.291L127.083 474.996L133.362 461.521L141.541 456.633Z" fill="white"/>
</g>
<path d="M158.568 450.748C158.962 450.748 159.306 450.7 159.6 450.604C159.893 450.503 160.136 450.361 160.328 450.18C160.525 449.993 160.672 449.769 160.768 449.508C160.864 449.241 160.912 448.945 160.912 448.62C160.912 448.311 160.864 448.031 160.768 447.78C160.672 447.529 160.528 447.316 160.336 447.14C160.144 446.964 159.901 446.831 159.608 446.74C159.314 446.644 158.968 446.596 158.568 446.596H156.96V450.748H158.568ZM158.568 444.932C159.341 444.932 160.01 445.023 160.576 445.204C161.141 445.385 161.608 445.639 161.976 445.964C162.344 446.289 162.616 446.679 162.792 447.132C162.973 447.585 163.064 448.081 163.064 448.62C163.064 449.18 162.97 449.695 162.784 450.164C162.597 450.628 162.317 451.028 161.944 451.364C161.57 451.7 161.101 451.961 160.536 452.148C159.976 452.335 159.32 452.428 158.568 452.428H156.96V456.5H154.808V444.932H158.568ZM167.659 448.164C168.267 448.164 168.819 448.263 169.315 448.46C169.816 448.657 170.243 448.937 170.595 449.3C170.952 449.663 171.227 450.105 171.419 450.628C171.611 451.151 171.707 451.735 171.707 452.38C171.707 453.031 171.611 453.617 171.419 454.14C171.227 454.663 170.952 455.108 170.595 455.476C170.243 455.844 169.816 456.127 169.315 456.324C168.819 456.521 168.267 456.62 167.659 456.62C167.045 456.62 166.488 456.521 165.987 456.324C165.485 456.127 165.056 455.844 164.699 455.476C164.347 455.108 164.072 454.663 163.875 454.14C163.683 453.617 163.587 453.031 163.587 452.38C163.587 451.735 163.683 451.151 163.875 450.628C164.072 450.105 164.347 449.663 164.699 449.3C165.056 448.937 165.485 448.657 165.987 448.46C166.488 448.263 167.045 448.164 167.659 448.164ZM167.659 455.1C168.341 455.1 168.845 454.871 169.171 454.412C169.501 453.953 169.667 453.281 169.667 452.396C169.667 451.511 169.501 450.836 169.171 450.372C168.845 449.908 168.341 449.676 167.659 449.676C166.965 449.676 166.451 449.911 166.115 450.38C165.784 450.844 165.619 451.516 165.619 452.396C165.619 453.276 165.784 453.948 166.115 454.412C166.451 454.871 166.965 455.1 167.659 455.1ZM184.794 448.292L182.186 456.5H180.602C180.42 456.5 180.295 456.383 180.226 456.148L178.754 451.404C178.706 451.244 178.66 451.087 178.618 450.932C178.58 450.772 178.548 450.612 178.522 450.452C178.49 450.612 178.452 450.775 178.41 450.94C178.372 451.1 178.33 451.26 178.282 451.42L176.786 456.148C176.722 456.383 176.58 456.5 176.362 456.5H174.842L172.242 448.292H173.818C173.962 448.292 174.084 448.327 174.186 448.396C174.287 448.465 174.354 448.553 174.386 448.66L175.562 453.044C175.62 453.284 175.671 453.519 175.714 453.748C175.762 453.977 175.802 454.207 175.834 454.436C175.892 454.207 175.954 453.977 176.018 453.748C176.087 453.519 176.159 453.284 176.234 453.044L177.594 448.644C177.626 448.537 177.687 448.449 177.778 448.38C177.874 448.311 177.988 448.276 178.122 448.276H178.994C179.132 448.276 179.25 448.311 179.346 448.38C179.447 448.449 179.514 448.537 179.546 448.644L180.866 453.044C180.935 453.284 180.999 453.521 181.058 453.756C181.122 453.985 181.183 454.215 181.242 454.444C181.311 453.991 181.41 453.524 181.538 453.044L182.746 448.66C182.783 448.553 182.85 448.465 182.946 448.396C183.042 448.327 183.156 448.292 183.29 448.292H184.794ZM191.065 451.452C191.065 451.196 191.027 450.956 190.953 450.732C190.883 450.503 190.777 450.303 190.633 450.132C190.489 449.961 190.305 449.828 190.081 449.732C189.862 449.631 189.606 449.58 189.313 449.58C188.742 449.58 188.291 449.743 187.961 450.068C187.635 450.393 187.427 450.855 187.337 451.452H191.065ZM187.297 452.644C187.329 453.065 187.403 453.431 187.521 453.74C187.638 454.044 187.793 454.297 187.985 454.5C188.177 454.697 188.403 454.847 188.665 454.948C188.931 455.044 189.225 455.092 189.545 455.092C189.865 455.092 190.139 455.055 190.369 454.98C190.603 454.905 190.806 454.823 190.977 454.732C191.153 454.641 191.305 454.559 191.433 454.484C191.566 454.409 191.694 454.372 191.817 454.372C191.982 454.372 192.105 454.433 192.185 454.556L192.753 455.276C192.534 455.532 192.289 455.748 192.017 455.924C191.745 456.095 191.459 456.233 191.161 456.34C190.867 456.441 190.566 456.513 190.257 456.556C189.953 456.599 189.657 456.62 189.369 456.62C188.798 456.62 188.267 456.527 187.777 456.34C187.286 456.148 186.859 455.868 186.497 455.5C186.134 455.127 185.849 454.668 185.641 454.124C185.433 453.575 185.329 452.94 185.329 452.22C185.329 451.66 185.419 451.135 185.601 450.644C185.782 450.148 186.041 449.719 186.377 449.356C186.718 448.988 187.131 448.697 187.617 448.484C188.107 448.271 188.659 448.164 189.273 448.164C189.79 448.164 190.267 448.247 190.705 448.412C191.142 448.577 191.518 448.82 191.833 449.14C192.147 449.455 192.393 449.844 192.569 450.308C192.75 450.767 192.841 451.292 192.841 451.884C192.841 452.183 192.809 452.385 192.745 452.492C192.681 452.593 192.558 452.644 192.377 452.644H187.297ZM196.188 449.716C196.444 449.225 196.748 448.841 197.1 448.564C197.452 448.281 197.868 448.14 198.348 448.14C198.726 448.14 199.03 448.223 199.26 448.388L199.132 449.868C199.105 449.964 199.065 450.033 199.012 450.076C198.964 450.113 198.897 450.132 198.812 450.132C198.732 450.132 198.612 450.119 198.452 450.092C198.297 450.065 198.145 450.052 197.996 450.052C197.777 450.052 197.582 450.084 197.412 450.148C197.241 450.212 197.086 450.305 196.948 450.428C196.814 450.545 196.694 450.689 196.588 450.86C196.486 451.031 196.39 451.225 196.3 451.444V456.5H194.324V448.292H195.484C195.686 448.292 195.828 448.329 195.908 448.404C195.988 448.473 196.041 448.601 196.068 448.788L196.188 449.716ZM205.346 451.452C205.346 451.196 205.309 450.956 205.234 450.732C205.165 450.503 205.058 450.303 204.914 450.132C204.77 449.961 204.586 449.828 204.362 449.732C204.143 449.631 203.887 449.58 203.594 449.58C203.023 449.58 202.573 449.743 202.242 450.068C201.917 450.393 201.709 450.855 201.618 451.452H205.346ZM201.578 452.644C201.61 453.065 201.685 453.431 201.802 453.74C201.919 454.044 202.074 454.297 202.266 454.5C202.458 454.697 202.685 454.847 202.946 454.948C203.213 455.044 203.506 455.092 203.826 455.092C204.146 455.092 204.421 455.055 204.65 454.98C204.885 454.905 205.087 454.823 205.258 454.732C205.434 454.641 205.586 454.559 205.714 454.484C205.847 454.409 205.975 454.372 206.098 454.372C206.263 454.372 206.386 454.433 206.466 454.556L207.034 455.276C206.815 455.532 206.57 455.748 206.298 455.924C206.026 456.095 205.741 456.233 205.442 456.34C205.149 456.441 204.847 456.513 204.538 456.556C204.234 456.599 203.938 456.62 203.65 456.62C203.079 456.62 202.549 456.527 202.058 456.34C201.567 456.148 201.141 455.868 200.778 455.5C200.415 455.127 200.13 454.668 199.922 454.124C199.714 453.575 199.61 452.94 199.61 452.22C199.61 451.66 199.701 451.135 199.882 450.644C200.063 450.148 200.322 449.719 200.658 449.356C200.999 448.988 201.413 448.697 201.898 448.484C202.389 448.271 202.941 448.164 203.554 448.164C204.071 448.164 204.549 448.247 204.986 448.412C205.423 448.577 205.799 448.82 206.114 449.14C206.429 449.455 206.674 449.844 206.85 450.308C207.031 450.767 207.122 451.292 207.122 451.884C207.122 452.183 207.09 452.385 207.026 452.492C206.962 452.593 206.839 452.644 206.658 452.644H201.578ZM213.757 450.388C213.533 450.116 213.288 449.924 213.021 449.812C212.76 449.7 212.477 449.644 212.173 449.644C211.874 449.644 211.605 449.7 211.365 449.812C211.125 449.924 210.92 450.095 210.749 450.324C210.578 450.548 210.448 450.836 210.357 451.188C210.266 451.535 210.221 451.945 210.221 452.42C210.221 452.9 210.258 453.308 210.333 453.644C210.413 453.975 210.525 454.247 210.669 454.46C210.813 454.668 210.989 454.82 211.197 454.916C211.405 455.007 211.637 455.052 211.893 455.052C212.304 455.052 212.653 454.967 212.941 454.796C213.229 454.625 213.501 454.383 213.757 454.068V450.388ZM215.733 444.612V456.5H214.525C214.264 456.5 214.098 456.38 214.029 456.14L213.861 455.348C213.53 455.727 213.149 456.033 212.717 456.268C212.29 456.503 211.792 456.62 211.221 456.62C210.773 456.62 210.362 456.527 209.989 456.34C209.616 456.153 209.293 455.884 209.021 455.532C208.754 455.175 208.546 454.735 208.397 454.212C208.253 453.689 208.181 453.092 208.181 452.42C208.181 451.812 208.264 451.247 208.429 450.724C208.594 450.201 208.832 449.748 209.141 449.364C209.45 448.98 209.821 448.681 210.253 448.468C210.685 448.249 211.17 448.14 211.709 448.14C212.168 448.14 212.56 448.212 212.885 448.356C213.21 448.5 213.501 448.695 213.757 448.94V444.612H215.733ZM223.55 454.372C223.774 454.644 224.016 454.836 224.278 454.948C224.544 455.06 224.824 455.116 225.118 455.116C225.422 455.116 225.694 455.063 225.934 454.956C226.179 454.844 226.387 454.673 226.558 454.444C226.728 454.209 226.859 453.913 226.95 453.556C227.04 453.193 227.086 452.761 227.086 452.26C227.086 451.359 226.936 450.708 226.638 450.308C226.339 449.903 225.91 449.7 225.35 449.7C224.971 449.7 224.64 449.788 224.358 449.964C224.075 450.135 223.806 450.377 223.55 450.692V454.372ZM223.55 449.3C223.88 448.953 224.246 448.679 224.646 448.476C225.051 448.268 225.512 448.164 226.03 448.164C226.504 448.164 226.931 448.257 227.31 448.444C227.694 448.631 228.019 448.9 228.286 449.252C228.558 449.599 228.766 450.02 228.91 450.516C229.054 451.012 229.126 451.569 229.126 452.188C229.126 452.855 229.043 453.46 228.878 454.004C228.712 454.548 228.475 455.015 228.166 455.404C227.862 455.788 227.494 456.087 227.062 456.3C226.63 456.513 226.15 456.62 225.622 456.62C225.366 456.62 225.134 456.593 224.926 456.54C224.718 456.492 224.526 456.423 224.35 456.332C224.174 456.241 224.011 456.132 223.862 456.004C223.718 455.871 223.579 455.724 223.446 455.564L223.358 456.116C223.326 456.255 223.27 456.353 223.19 456.412C223.115 456.471 223.011 456.5 222.878 456.5H221.574V444.612H223.55V449.3ZM237.873 448.292L233.401 458.756C233.343 458.895 233.265 458.999 233.169 459.068C233.079 459.143 232.937 459.18 232.745 459.18H231.273L232.809 455.884L229.489 448.292H231.225C231.38 448.292 231.5 448.329 231.585 448.404C231.676 448.479 231.743 448.564 231.785 448.66L233.529 452.916C233.588 453.06 233.636 453.204 233.673 453.348C233.716 453.492 233.756 453.639 233.793 453.788C233.841 453.639 233.889 453.492 233.937 453.348C233.985 453.199 234.039 453.052 234.097 452.908L235.745 448.66C235.788 448.553 235.857 448.465 235.953 448.396C236.055 448.327 236.167 448.292 236.289 448.292H237.873ZM244.803 449.78H245.307C245.51 449.78 245.678 449.753 245.811 449.7C245.945 449.641 246.059 449.551 246.155 449.428L249.347 445.388C249.481 445.217 249.619 445.1 249.763 445.036C249.913 444.967 250.099 444.932 250.323 444.932H252.179L248.283 449.74C248.054 450.033 247.817 450.241 247.571 450.364C247.747 450.428 247.905 450.519 248.043 450.636C248.187 450.748 248.323 450.897 248.451 451.084L252.467 456.5H250.571C250.315 456.5 250.123 456.465 249.995 456.396C249.873 456.321 249.769 456.215 249.683 456.076L246.411 451.804C246.31 451.66 246.193 451.559 246.059 451.5C245.926 451.441 245.734 451.412 245.483 451.412H244.803V456.5H242.651V444.932H244.803V449.78ZM259.974 448.292V456.5H258.766C258.504 456.5 258.339 456.38 258.27 456.14L258.134 455.484C257.798 455.825 257.427 456.103 257.022 456.316C256.616 456.524 256.139 456.628 255.59 456.628C255.142 456.628 254.744 456.553 254.398 456.404C254.056 456.249 253.768 456.033 253.534 455.756C253.299 455.479 253.12 455.151 252.998 454.772C252.88 454.388 252.822 453.967 252.822 453.508V448.292H254.798V453.508C254.798 454.009 254.912 454.399 255.142 454.676C255.376 454.948 255.726 455.084 256.19 455.084C256.531 455.084 256.851 455.009 257.15 454.86C257.448 454.705 257.731 454.495 257.998 454.228V448.292H259.974ZM263.909 454.372C264.133 454.644 264.376 454.836 264.637 454.948C264.904 455.06 265.184 455.116 265.477 455.116C265.781 455.116 266.053 455.063 266.293 454.956C266.538 454.844 266.746 454.673 266.917 454.444C267.088 454.209 267.218 453.913 267.309 453.556C267.4 453.193 267.445 452.761 267.445 452.26C267.445 451.359 267.296 450.708 266.997 450.308C266.698 449.903 266.269 449.7 265.709 449.7C265.33 449.7 265 449.788 264.717 449.964C264.434 450.135 264.165 450.377 263.909 450.692V454.372ZM263.909 449.3C264.24 448.953 264.605 448.679 265.005 448.476C265.41 448.268 265.872 448.164 266.389 448.164C266.864 448.164 267.29 448.257 267.669 448.444C268.053 448.631 268.378 448.9 268.645 449.252C268.917 449.599 269.125 450.02 269.269 450.516C269.413 451.012 269.485 451.569 269.485 452.188C269.485 452.855 269.402 453.46 269.237 454.004C269.072 454.548 268.834 455.015 268.525 455.404C268.221 455.788 267.853 456.087 267.421 456.3C266.989 456.513 266.509 456.62 265.981 456.62C265.725 456.62 265.493 456.593 265.285 456.54C265.077 456.492 264.885 456.423 264.709 456.332C264.533 456.241 264.37 456.132 264.221 456.004C264.077 455.871 263.938 455.724 263.805 455.564L263.717 456.116C263.685 456.255 263.629 456.353 263.549 456.412C263.474 456.471 263.37 456.5 263.237 456.5H261.933V444.612H263.909V449.3ZM273.059 448.292V456.5H271.075V448.292H273.059ZM273.331 445.9C273.331 446.071 273.296 446.231 273.227 446.38C273.158 446.529 273.064 446.66 272.947 446.772C272.835 446.884 272.702 446.975 272.547 447.044C272.392 447.108 272.227 447.14 272.051 447.14C271.88 447.14 271.718 447.108 271.563 447.044C271.414 446.975 271.283 446.884 271.171 446.772C271.059 446.66 270.968 446.529 270.899 446.38C270.835 446.231 270.803 446.071 270.803 445.9C270.803 445.724 270.835 445.559 270.899 445.404C270.968 445.249 271.059 445.116 271.171 445.004C271.283 444.892 271.414 444.804 271.563 444.74C271.718 444.671 271.88 444.636 272.051 444.636C272.227 444.636 272.392 444.671 272.547 444.74C272.702 444.804 272.835 444.892 272.947 445.004C273.064 445.116 273.158 445.249 273.227 445.404C273.296 445.559 273.331 445.724 273.331 445.9ZM277.05 444.612V451.42H277.418C277.551 451.42 277.655 451.404 277.73 451.372C277.81 451.335 277.89 451.263 277.97 451.156L280.01 448.636C280.095 448.524 280.188 448.439 280.29 448.38C280.396 448.321 280.532 448.292 280.698 448.292H282.506L279.954 451.34C279.772 451.58 279.575 451.764 279.362 451.892C279.474 451.972 279.572 452.065 279.658 452.172C279.748 452.279 279.834 452.393 279.914 452.516L282.65 456.5H280.866C280.711 456.5 280.578 456.476 280.466 456.428C280.354 456.375 280.26 456.281 280.186 456.148L278.09 453.036C278.015 452.913 277.938 452.833 277.858 452.796C277.778 452.759 277.658 452.74 277.498 452.74H277.05V456.5H275.074V444.612H277.05Z" fill="white"/>
<path d="M241.363 460.58H282.65V461.372H241.363V460.58Z" fill="white"/>
<path d="M604.729 917.285L343.567 932.178L258.221 1131.28L124.303 1052.21L178.085 935.58L80.8689 940.955L8.67937 983.833L-106.958 915.513L246.239 705.407L361.876 773.727L225.164 855.039L467.654 836.23L604.729 917.285Z" fill="#469CFF"/>
<path d="M359.082 -421.793L237.97 -177.67L367 0.405887L229.688 81.5469L156.018 -26.2076L110.783 64.5954L111.02 151.654L-7.68987 221.775L-8.87695 -204.44L109.833 -274.561L110.294 -109.521L218.348 -338.68L359.082 -421.793Z" fill="#469CFF"/>
</g>
<defs>
<clipPath id="clip0_325_1482">
<rect width="360" height="920" fill="white"/>
</clipPath>
<clipPath id="clip1_325_1482">
<rect width="66" height="89" fill="white" transform="translate(76 405.5)"/>
</clipPath>
</defs>
</svg>
