<svg width="401" height="120" viewBox="0 0 401 120" fill="none" xmlns="http://www.w3.org/2000/svg">
<g clip-path="url(#clip0_328_1553)">
<rect width="401" height="120" fill="#1A1A1A"/>
<g clip-path="url(#clip1_328_1553)">
<path d="M143.171 37.9558L132.133 38.5855L128.526 47.0046L122.866 43.6612L125.139 38.7294L121.03 38.9566L117.979 40.7698L113.092 37.8808L128.019 28.9964L132.907 31.8854L127.129 35.3237L137.377 34.5283L143.171 37.9558Z" fill="white"/>
<path d="M127.961 47.8175L127.934 57.5547C127.918 63.3193 125.163 65.2516 120.342 62.4019C117.997 61.0012 116.062 58.9835 114.736 56.5581C113.41 54.1327 112.742 51.3881 112.802 48.6092L112.828 38.8714L117.757 41.7845L117.732 50.9422C117.725 53.2829 118.476 55.5995 120.357 56.7122C122.239 57.8249 123.004 56.4046 123.014 54.0632L123.039 44.9038L127.961 47.8175Z" fill="white"/>
<path d="M142.412 48.278C144.704 47.123 146.669 47.4452 146.676 50.0537C146.683 52.9094 144.361 56.2184 140.699 58.3827L128.939 65.3331L128.891 47.7812L139.833 41.3143C143.493 39.1524 145.828 39.6535 145.836 42.3877C145.841 44.3441 144.599 46.8341 142.412 48.278ZM139.46 54.8434C139.85 54.6312 140.178 54.3191 140.414 53.9377C140.65 53.5562 140.785 53.1186 140.806 52.6677C140.806 51.8179 140.27 51.6034 139.452 52.0857L134.561 54.9776L134.568 57.736L139.46 54.8446L139.46 54.8434ZM134.543 48.7126L134.55 51.2183L138.888 48.654C139.254 48.4593 139.565 48.1716 139.791 47.8185C140.016 47.4654 140.15 47.0588 140.178 46.6377C140.178 45.788 139.58 45.736 138.886 46.1458L134.548 48.7108" fill="white"/>
<path d="M143.958 74.938L143.942 80.7122L139.43 78.0451L139.411 84.5579L143.923 87.2251L143.907 92.9994L128.874 84.1149L128.89 78.3406L133.398 81.0054L133.416 74.4925L128.908 71.8278L128.924 66.0535L133.432 68.7183L139.446 72.2738L143.958 74.938Z" fill="white"/>
<path d="M160.468 65.7701L155.349 76.093L160.802 83.623L154.999 87.054L151.885 82.4976L149.973 86.3372L149.983 90.0185L144.966 92.9837L144.916 74.9609L149.933 71.9958L149.953 78.9747L154.52 69.2846L160.468 65.7701Z" fill="white"/>
</g>
<path d="M178.738 61.467C179.084 61.467 179.385 61.425 179.641 61.341C179.898 61.2523 180.11 61.1287 180.278 60.97C180.451 60.8067 180.579 60.6107 180.663 60.382C180.747 60.1487 180.789 59.8897 180.789 59.605C180.789 59.3343 180.747 59.0893 180.663 58.87C180.579 58.6507 180.453 58.464 180.285 58.31C180.117 58.156 179.905 58.0393 179.648 57.96C179.392 57.876 179.088 57.834 178.738 57.834H177.331V61.467H178.738ZM178.738 56.378C179.415 56.378 180.001 56.4573 180.495 56.616C180.99 56.7747 181.398 56.9963 181.72 57.281C182.042 57.5657 182.28 57.9063 182.434 58.303C182.593 58.6997 182.672 59.1337 182.672 59.605C182.672 60.095 182.591 60.5453 182.427 60.956C182.264 61.362 182.019 61.712 181.692 62.006C181.366 62.3 180.955 62.5287 180.46 62.692C179.97 62.8553 179.396 62.937 178.738 62.937H177.331V66.5H175.448V56.378H178.738ZM186.693 59.206C187.225 59.206 187.708 59.2923 188.142 59.465C188.581 59.6377 188.954 59.8827 189.262 60.2C189.575 60.5173 189.815 60.9047 189.983 61.362C190.151 61.8193 190.235 62.3303 190.235 62.895C190.235 63.4643 190.151 63.9777 189.983 64.435C189.815 64.8923 189.575 65.282 189.262 65.604C188.954 65.926 188.581 66.1733 188.142 66.346C187.708 66.5187 187.225 66.605 186.693 66.605C186.156 66.605 185.669 66.5187 185.23 66.346C184.791 66.1733 184.416 65.926 184.103 65.604C183.795 65.282 183.555 64.8923 183.382 64.435C183.214 63.9777 183.13 63.4643 183.13 62.895C183.13 62.3303 183.214 61.8193 183.382 61.362C183.555 60.9047 183.795 60.5173 184.103 60.2C184.416 59.8827 184.791 59.6377 185.23 59.465C185.669 59.2923 186.156 59.206 186.693 59.206ZM186.693 65.275C187.29 65.275 187.731 65.0743 188.016 64.673C188.305 64.2717 188.45 63.6837 188.45 62.909C188.45 62.1343 188.305 61.544 188.016 61.138C187.731 60.732 187.29 60.529 186.693 60.529C186.086 60.529 185.636 60.7343 185.342 61.145C185.053 61.551 184.908 62.139 184.908 62.909C184.908 63.679 185.053 64.267 185.342 64.673C185.636 65.0743 186.086 65.275 186.693 65.275ZM201.686 59.318L199.404 66.5H198.018C197.859 66.5 197.75 66.3973 197.689 66.192L196.401 62.041C196.359 61.901 196.319 61.7633 196.282 61.628C196.249 61.488 196.221 61.348 196.198 61.208C196.17 61.348 196.137 61.4903 196.1 61.635C196.067 61.775 196.03 61.915 195.988 62.055L194.679 66.192C194.623 66.3973 194.499 66.5 194.308 66.5H192.978L190.703 59.318H192.082C192.208 59.318 192.315 59.3483 192.404 59.409C192.493 59.4697 192.551 59.5467 192.579 59.64L193.608 63.476C193.659 63.686 193.704 63.8913 193.741 64.092C193.783 64.2927 193.818 64.4933 193.846 64.694C193.897 64.4933 193.951 64.2927 194.007 64.092C194.068 63.8913 194.131 63.686 194.196 63.476L195.386 59.626C195.414 59.5327 195.468 59.4557 195.547 59.395C195.631 59.3343 195.731 59.304 195.848 59.304H196.611C196.732 59.304 196.835 59.3343 196.919 59.395C197.008 59.4557 197.066 59.5327 197.094 59.626L198.249 63.476C198.31 63.686 198.366 63.8937 198.417 64.099C198.473 64.2997 198.527 64.5003 198.578 64.701C198.639 64.3043 198.725 63.896 198.837 63.476L199.894 59.64C199.927 59.5467 199.985 59.4697 200.069 59.409C200.153 59.3483 200.253 59.318 200.37 59.318H201.686ZM207.173 62.083C207.173 61.859 207.141 61.649 207.075 61.453C207.015 61.2523 206.921 61.0773 206.795 60.928C206.669 60.7787 206.508 60.662 206.312 60.578C206.121 60.4893 205.897 60.445 205.64 60.445C205.141 60.445 204.747 60.5873 204.457 60.872C204.173 61.1567 203.991 61.5603 203.911 62.083H207.173ZM203.876 63.126C203.904 63.4947 203.97 63.8143 204.072 64.085C204.175 64.351 204.31 64.5727 204.478 64.75C204.646 64.9227 204.845 65.0533 205.073 65.142C205.307 65.226 205.563 65.268 205.843 65.268C206.123 65.268 206.364 65.2353 206.564 65.17C206.77 65.1047 206.947 65.0323 207.096 64.953C207.25 64.8737 207.383 64.8013 207.495 64.736C207.612 64.6707 207.724 64.638 207.831 64.638C207.976 64.638 208.083 64.6917 208.153 64.799L208.65 65.429C208.459 65.653 208.244 65.842 208.006 65.996C207.768 66.1453 207.519 66.2667 207.257 66.36C207.001 66.4487 206.737 66.5117 206.466 66.549C206.2 66.5863 205.941 66.605 205.689 66.605C205.19 66.605 204.726 66.5233 204.296 66.36C203.867 66.192 203.494 65.947 203.176 65.625C202.859 65.2983 202.609 64.897 202.427 64.421C202.245 63.9403 202.154 63.385 202.154 62.755C202.154 62.265 202.234 61.8053 202.392 61.376C202.551 60.942 202.777 60.5663 203.071 60.249C203.37 59.927 203.732 59.6727 204.156 59.486C204.586 59.2993 205.069 59.206 205.605 59.206C206.058 59.206 206.476 59.2783 206.858 59.423C207.241 59.5677 207.57 59.78 207.845 60.06C208.121 60.3353 208.335 60.676 208.489 61.082C208.648 61.4833 208.727 61.943 208.727 62.461C208.727 62.7223 208.699 62.8997 208.643 62.993C208.587 63.0817 208.48 63.126 208.321 63.126H203.876ZM211.656 60.564C211.88 60.1347 212.146 59.7987 212.454 59.556C212.762 59.3087 213.126 59.185 213.546 59.185C213.877 59.185 214.143 59.2573 214.344 59.402L214.232 60.697C214.209 60.781 214.174 60.8417 214.127 60.879C214.085 60.9117 214.027 60.928 213.952 60.928C213.882 60.928 213.777 60.9163 213.637 60.893C213.502 60.8697 213.369 60.858 213.238 60.858C213.047 60.858 212.876 60.886 212.727 60.942C212.578 60.998 212.442 61.0797 212.321 61.187C212.204 61.2897 212.099 61.4157 212.006 61.565C211.917 61.7143 211.833 61.8847 211.754 62.076V66.5H210.025V59.318H211.04C211.217 59.318 211.341 59.3507 211.411 59.416C211.481 59.4767 211.528 59.5887 211.551 59.752L211.656 60.564ZM219.669 62.083C219.669 61.859 219.637 61.649 219.571 61.453C219.511 61.2523 219.417 61.0773 219.291 60.928C219.165 60.7787 219.004 60.662 218.808 60.578C218.617 60.4893 218.393 60.445 218.136 60.445C217.637 60.445 217.243 60.5873 216.953 60.872C216.669 61.1567 216.487 61.5603 216.407 62.083H219.669ZM216.372 63.126C216.4 63.4947 216.466 63.8143 216.568 64.085C216.671 64.351 216.806 64.5727 216.974 64.75C217.142 64.9227 217.341 65.0533 217.569 65.142C217.803 65.226 218.059 65.268 218.339 65.268C218.619 65.268 218.86 65.2353 219.06 65.17C219.266 65.1047 219.443 65.0323 219.592 64.953C219.746 64.8737 219.879 64.8013 219.991 64.736C220.108 64.6707 220.22 64.638 220.327 64.638C220.472 64.638 220.579 64.6917 220.649 64.799L221.146 65.429C220.955 65.653 220.74 65.842 220.502 65.996C220.264 66.1453 220.015 66.2667 219.753 66.36C219.497 66.4487 219.233 66.5117 218.962 66.549C218.696 66.5863 218.437 66.605 218.185 66.605C217.686 66.605 217.222 66.5233 216.792 66.36C216.363 66.192 215.99 65.947 215.672 65.625C215.355 65.2983 215.105 64.897 214.923 64.421C214.741 63.9403 214.65 63.385 214.65 62.755C214.65 62.265 214.73 61.8053 214.888 61.376C215.047 60.942 215.273 60.5663 215.567 60.249C215.866 59.927 216.228 59.6727 216.652 59.486C217.082 59.2993 217.565 59.206 218.101 59.206C218.554 59.206 218.972 59.2783 219.354 59.423C219.737 59.5677 220.066 59.78 220.341 60.06C220.617 60.3353 220.831 60.676 220.985 61.082C221.144 61.4833 221.223 61.943 221.223 62.461C221.223 62.7223 221.195 62.8997 221.139 62.993C221.083 63.0817 220.976 63.126 220.817 63.126H216.372ZM227.029 61.152C226.833 60.914 226.618 60.746 226.385 60.648C226.156 60.55 225.909 60.501 225.643 60.501C225.382 60.501 225.146 60.55 224.936 60.648C224.726 60.746 224.546 60.8953 224.397 61.096C224.248 61.292 224.133 61.544 224.054 61.852C223.975 62.1553 223.935 62.5147 223.935 62.93C223.935 63.35 223.968 63.707 224.033 64.001C224.103 64.2903 224.201 64.5283 224.327 64.715C224.453 64.897 224.607 65.03 224.789 65.114C224.971 65.1933 225.174 65.233 225.398 65.233C225.757 65.233 226.063 65.1583 226.315 65.009C226.567 64.8597 226.805 64.6473 227.029 64.372V61.152ZM228.758 56.098V66.5H227.701C227.472 66.5 227.328 66.395 227.267 66.185L227.12 65.492C226.831 65.8233 226.497 66.0917 226.119 66.297C225.746 66.5023 225.309 66.605 224.81 66.605C224.418 66.605 224.059 66.5233 223.732 66.36C223.405 66.1967 223.123 65.961 222.885 65.653C222.652 65.3403 222.47 64.9553 222.339 64.498C222.213 64.0407 222.15 63.518 222.15 62.93C222.15 62.398 222.222 61.9033 222.367 61.446C222.512 60.9887 222.719 60.592 222.99 60.256C223.261 59.92 223.585 59.6587 223.963 59.472C224.341 59.2807 224.766 59.185 225.237 59.185C225.638 59.185 225.981 59.248 226.266 59.374C226.551 59.5 226.805 59.6703 227.029 59.885V56.098H228.758ZM235.598 64.638C235.794 64.876 236.006 65.044 236.235 65.142C236.468 65.24 236.713 65.289 236.97 65.289C237.236 65.289 237.474 65.2423 237.684 65.149C237.898 65.051 238.08 64.9017 238.23 64.701C238.379 64.4957 238.493 64.2367 238.573 63.924C238.652 63.6067 238.692 63.2287 238.692 62.79C238.692 62.0013 238.561 61.432 238.3 61.082C238.038 60.7273 237.663 60.55 237.173 60.55C236.841 60.55 236.552 60.627 236.305 60.781C236.057 60.9303 235.822 61.1427 235.598 61.418V64.638ZM235.598 60.2C235.887 59.8967 236.207 59.6563 236.557 59.479C236.911 59.297 237.315 59.206 237.768 59.206C238.183 59.206 238.556 59.2877 238.888 59.451C239.224 59.6143 239.508 59.85 239.742 60.158C239.98 60.4613 240.162 60.83 240.288 61.264C240.414 61.698 240.477 62.1857 240.477 62.727C240.477 63.3103 240.404 63.84 240.26 64.316C240.115 64.792 239.907 65.2003 239.637 65.541C239.371 65.877 239.049 66.1383 238.671 66.325C238.293 66.5117 237.873 66.605 237.411 66.605C237.187 66.605 236.984 66.5817 236.802 66.535C236.62 66.493 236.452 66.4323 236.298 66.353C236.144 66.2737 236.001 66.178 235.871 66.066C235.745 65.9493 235.623 65.821 235.507 65.681L235.43 66.164C235.402 66.2853 235.353 66.3717 235.283 66.423C235.217 66.4743 235.126 66.5 235.01 66.5H233.869V56.098H235.598V60.2ZM248.131 59.318L244.218 68.474C244.167 68.5953 244.099 68.6863 244.015 68.747C243.936 68.8123 243.812 68.845 243.644 68.845H242.356L243.7 65.961L240.795 59.318H242.314C242.449 59.318 242.554 59.3507 242.629 59.416C242.708 59.4813 242.767 59.556 242.804 59.64L244.33 63.364C244.381 63.49 244.423 63.616 244.456 63.742C244.493 63.868 244.528 63.9963 244.561 64.127C244.603 63.9963 244.645 63.868 244.687 63.742C244.729 63.6113 244.776 63.483 244.827 63.357L246.269 59.64C246.306 59.5467 246.367 59.4697 246.451 59.409C246.54 59.3483 246.638 59.318 246.745 59.318H248.131ZM254.195 60.62H254.636C254.813 60.62 254.96 60.5967 255.077 60.55C255.193 60.4987 255.294 60.4193 255.378 60.312L258.171 56.777C258.287 56.6277 258.409 56.525 258.535 56.469C258.665 56.4083 258.829 56.378 259.025 56.378H260.649L257.24 60.585C257.039 60.8417 256.831 61.0237 256.617 61.131C256.771 61.187 256.908 61.2663 257.03 61.369C257.156 61.467 257.275 61.5977 257.387 61.761L260.901 66.5H259.242C259.018 66.5 258.85 66.4697 258.738 66.409C258.63 66.3437 258.539 66.2503 258.465 66.129L255.602 62.391C255.513 62.265 255.41 62.1763 255.294 62.125C255.177 62.0737 255.009 62.048 254.79 62.048H254.195V66.5H252.312V56.378H254.195V60.62ZM267.469 59.318V66.5H266.412C266.183 66.5 266.038 66.395 265.978 66.185L265.859 65.611C265.565 65.9097 265.24 66.1523 264.886 66.339C264.531 66.521 264.113 66.612 263.633 66.612C263.241 66.612 262.893 66.5467 262.59 66.416C262.291 66.2807 262.039 66.0917 261.834 65.849C261.628 65.6063 261.472 65.3193 261.365 64.988C261.262 64.652 261.211 64.2833 261.211 63.882V59.318H262.94V63.882C262.94 64.3207 263.04 64.6613 263.241 64.904C263.446 65.142 263.752 65.261 264.158 65.261C264.456 65.261 264.736 65.1957 264.998 65.065C265.259 64.9297 265.506 64.7453 265.74 64.512V59.318H267.469ZM270.912 64.638C271.108 64.876 271.32 65.044 271.549 65.142C271.782 65.24 272.027 65.289 272.284 65.289C272.55 65.289 272.788 65.2423 272.998 65.149C273.213 65.051 273.395 64.9017 273.544 64.701C273.693 64.4957 273.808 64.2367 273.887 63.924C273.966 63.6067 274.006 63.2287 274.006 62.79C274.006 62.0013 273.875 61.432 273.614 61.082C273.353 60.7273 272.977 60.55 272.487 60.55C272.156 60.55 271.866 60.627 271.619 60.781C271.372 60.9303 271.136 61.1427 270.912 61.418V64.638ZM270.912 60.2C271.201 59.8967 271.521 59.6563 271.871 59.479C272.226 59.297 272.629 59.206 273.082 59.206C273.497 59.206 273.871 59.2877 274.202 59.451C274.538 59.6143 274.823 59.85 275.056 60.158C275.294 60.4613 275.476 60.83 275.602 61.264C275.728 61.698 275.791 62.1857 275.791 62.727C275.791 63.3103 275.719 63.84 275.574 64.316C275.429 64.792 275.222 65.2003 274.951 65.541C274.685 65.877 274.363 66.1383 273.985 66.325C273.607 66.5117 273.187 66.605 272.725 66.605C272.501 66.605 272.298 66.5817 272.116 66.535C271.934 66.493 271.766 66.4323 271.612 66.353C271.458 66.2737 271.316 66.178 271.185 66.066C271.059 65.9493 270.938 65.821 270.821 65.681L270.744 66.164C270.716 66.2853 270.667 66.3717 270.597 66.423C270.532 66.4743 270.441 66.5 270.324 66.5H269.183V56.098H270.912V60.2ZM278.918 59.318V66.5H277.182V59.318H278.918ZM279.156 57.225C279.156 57.3743 279.126 57.5143 279.065 57.645C279.005 57.7757 278.923 57.89 278.82 57.988C278.722 58.086 278.606 58.1653 278.47 58.226C278.335 58.282 278.19 58.31 278.036 58.31C277.887 58.31 277.745 58.282 277.609 58.226C277.479 58.1653 277.364 58.086 277.266 57.988C277.168 57.89 277.089 57.7757 277.028 57.645C276.972 57.5143 276.944 57.3743 276.944 57.225C276.944 57.071 276.972 56.9263 277.028 56.791C277.089 56.6557 277.168 56.539 277.266 56.441C277.364 56.343 277.479 56.266 277.609 56.21C277.745 56.1493 277.887 56.119 278.036 56.119C278.19 56.119 278.335 56.1493 278.47 56.21C278.606 56.266 278.722 56.343 278.82 56.441C278.923 56.539 279.005 56.6557 279.065 56.791C279.126 56.9263 279.156 57.071 279.156 57.225ZM282.41 56.098V62.055H282.732C282.849 62.055 282.94 62.041 283.005 62.013C283.075 61.9803 283.145 61.9173 283.215 61.824L285 59.619C285.075 59.521 285.156 59.4463 285.245 59.395C285.338 59.3437 285.457 59.318 285.602 59.318H287.184L284.951 61.985C284.792 62.195 284.62 62.356 284.433 62.468C284.531 62.538 284.617 62.6197 284.692 62.713C284.771 62.8063 284.846 62.9067 284.916 63.014L287.31 66.5H285.749C285.614 66.5 285.497 66.479 285.399 66.437C285.301 66.3903 285.219 66.3087 285.154 66.192L283.32 63.469C283.255 63.3617 283.187 63.2917 283.117 63.259C283.047 63.2263 282.942 63.21 282.802 63.21H282.41V66.5H280.681V56.098H282.41Z" fill="white"/>
<path d="M251.185 70.07H287.31V70.763H251.185V70.07Z" fill="white"/>
<path d="M117.457 -158.177L72.7517 -68.066L120.379 -2.33487L69.6948 27.6159L42.5017 -12.1584L25.8044 21.3588L25.8921 53.4937L-17.9261 79.3768L-18.3643 -77.9477L25.4539 -103.831L25.624 -42.911L65.5088 -127.498L117.457 -158.177Z" fill="#469CFF"/>
<path d="M525.467 147.004L419.458 153.049L384.816 233.866L330.457 201.771L352.288 154.43L312.827 156.611L283.524 174.016L236.586 146.284L379.952 61L426.89 88.7319L371.398 121.737L469.826 114.103L525.467 147.004Z" fill="#469CFF"/>
</g>
<defs>
<clipPath id="clip0_328_1553">
<rect width="401" height="120" fill="white"/>
</clipPath>
<clipPath id="clip1_328_1553">
<rect width="48" height="64" fill="white" transform="translate(112.802 29)"/>
</clipPath>
</defs>
</svg>
